<svg width="30" height="30" viewBox="0 0 30 30" fill="none" xmlns="http://www.w3.org/2000/svg">
<path d="M11.5625 3.75C10.3657 3.75 9.375 4.74065 9.375 5.9375V7.5H4.6875C3.49065 7.5 2.5 8.49065 2.5 9.6875V24.6875C2.5 25.8843 3.49065 26.875 4.6875 26.875H25.3125C26.5093 26.875 27.5 25.8843 27.5 24.6875V9.6875C27.5 8.49065 26.5093 7.5 25.3125 7.5H20.625V5.9375C20.625 4.74065 19.6343 3.75 18.4375 3.75H11.5625ZM11.5625 5.625H18.4375C18.6219 5.625 18.75 5.7531 18.75 5.9375V7.5H11.25V5.9375C11.25 5.7531 11.3781 5.625 11.5625 5.625ZM4.6875 9.375H25.3125C25.4969 9.375 25.625 9.5031 25.625 9.6875V18.125H16.875V17.8125C16.875 17.295 16.455 16.875 15.9375 16.875H14.0625C13.545 16.875 13.125 17.295 13.125 17.8125V18.125H4.375V9.6875C4.375 9.5031 4.5031 9.375 4.6875 9.375ZM4.375 20H13.125V20.3125C13.125 20.83 13.545 21.25 14.0625 21.25H15.9375C16.455 21.25 16.875 20.83 16.875 20.3125V20H25.625V24.6875C25.625 24.8719 25.4969 25 25.3125 25H4.6875C4.5031 25 4.375 24.8719 4.375 24.6875V20Z" fill="#696EDA"/>
</svg>
