<svg width="92" height="92" viewBox="0 0 92 92" fill="none" xmlns="http://www.w3.org/2000/svg">
<rect width="92" height="92" rx="46" fill="#4348BD"/>
<path d="M32.5 29C28.9281 29 26 31.9281 26 35.5V52.5C26 56.0719 28.9281 59 32.5 59H34V64.5C34 66.466 36.4273 67.6789 38 66.5L48 59H59.5C63.0719 59 66 56.0719 66 52.5V35.5C66 31.9281 63.0719 29 59.5 29H32.5ZM32.5 32H59.5C61.4501 32 63 33.5499 63 35.5V52.5C63 54.4501 61.4501 56 59.5 56H47.5C47.1752 56.0002 46.8593 56.1057 46.5996 56.3008L37 63.5V57.5C37 57.1022 36.8419 56.7207 36.5606 56.4394C36.2793 56.1581 35.8978 56 35.5 56H32.5C30.5499 56 29 54.4501 29 52.5V35.5C29 33.5499 30.5499 32 32.5 32ZM37.5 38.998C37.3012 38.9952 37.1039 39.032 36.9194 39.1061C36.735 39.1802 36.5671 39.2902 36.4255 39.4298C36.284 39.5694 36.1716 39.7357 36.0949 39.9191C36.0181 40.1025 35.9786 40.2993 35.9786 40.498C35.9786 40.6968 36.0181 40.8936 36.0949 41.077C36.1716 41.2604 36.284 41.4267 36.4255 41.5663C36.5671 41.7059 36.735 41.8159 36.9194 41.89C37.1039 41.9641 37.3012 42.0009 37.5 41.998H54.5C54.6988 42.0009 54.8961 41.9641 55.0806 41.89C55.265 41.8159 55.4329 41.7059 55.5745 41.5663C55.716 41.4267 55.8284 41.2604 55.9051 41.077C55.9819 40.8936 56.0214 40.6968 56.0214 40.498C56.0214 40.2993 55.9819 40.1025 55.9051 39.9191C55.8284 39.7357 55.716 39.5694 55.5745 39.4298C55.4329 39.2902 55.265 39.1802 55.0806 39.1061C54.8961 39.032 54.6988 38.9952 54.5 38.998H37.5ZM37.5 45.998C37.3012 45.9952 37.1039 46.032 36.9194 46.1061C36.735 46.1802 36.5671 46.2902 36.4255 46.4298C36.284 46.5694 36.1716 46.7357 36.0949 46.9191C36.0181 47.1025 35.9786 47.2993 35.9786 47.498C35.9786 47.6968 36.0181 47.8936 36.0949 48.077C36.1716 48.2604 36.284 48.4267 36.4255 48.5663C36.5671 48.7059 36.735 48.8159 36.9194 48.89C37.1039 48.9641 37.3012 49.0009 37.5 48.998H50.5C50.6988 49.0009 50.8961 48.9641 51.0806 48.89C51.265 48.8159 51.4329 48.7059 51.5745 48.5663C51.716 48.4267 51.8284 48.2604 51.9051 48.077C51.9819 47.8936 52.0214 47.6968 52.0214 47.498C52.0214 47.2993 51.9819 47.1025 51.9051 46.9191C51.8284 46.7357 51.716 46.5694 51.5745 46.4298C51.4329 46.2902 51.265 46.1802 51.0806 46.1061C50.8961 46.032 50.6988 45.9952 50.5 45.998H37.5Z" fill="white"/>
</svg>
