<svg width="92" height="92" viewBox="0 0 92 92" fill="none" xmlns="http://www.w3.org/2000/svg">
<rect width="92" height="92" rx="46" fill="#4348BD"/>
<path d="M33.5 26C31.019 26 29 28.019 29 30.5V61.5C29 63.981 31.019 66 33.5 66H56C53.204 66 50.6783 64.85 48.8633 63H33.5C32.673 63 32 62.327 32 61.5V61H47.3496C46.8176 60.081 46.4192 59.074 46.2012 58H32V30.5C32 29.673 32.673 29 33.5 29H57.5C58.327 29 59 29.673 59 30.5V46.459C60.095 46.803 61.103 47.3387 62 48.0137V30.5C62 28.019 59.981 26 57.5 26H33.5ZM45.5 33C43.0325 33 41 35.0325 41 37.5C41 39.9675 43.0325 42 45.5 42C47.9675 42 50 39.9675 50 37.5C50 35.0325 47.9675 33 45.5 33ZM45.5 36C46.3465 36 47 36.6535 47 37.5C47 38.3465 46.3465 39 45.5 39C44.6535 39 44 38.3465 44 37.5C44 36.6535 44.6535 36 45.5 36ZM40.5 44C39.122 44 38 45.121 38 46.5V49C38 51.804 41.294 54 45.5 54C45.738 54 45.9731 53.9906 46.2051 53.9766C46.4441 52.8146 46.8921 51.7329 47.4961 50.7559C46.9091 50.9049 46.244 51 45.5 51C42.795 51 41 49.796 41 49V47H50V48.0137C50.896 47.3397 51.9021 46.8049 52.9961 46.4609C52.9741 45.0999 51.865 44 50.5 44H40.5ZM56 48C51.589 48 48 51.589 48 56C48 60.411 51.589 64 56 64C57.665 64 59.2102 63.4873 60.4922 62.6133L65.4395 67.5605C65.7325 67.8545 66.116 68 66.5 68C66.884 68 67.2675 67.8535 67.5605 67.5605C68.1455 66.9745 68.1455 66.0255 67.5605 65.4395L62.6152 60.4922C63.4882 59.2102 64 57.665 64 56C64 51.589 60.411 48 56 48ZM56 51C58.757 51 61 53.243 61 56C61 58.757 58.757 61 56 61C53.243 61 51 58.757 51 56C51 53.243 53.243 51 56 51Z" fill="white"/>
</svg>
