<svg width="330" height="101" viewBox="0 0 330 101" fill="none" xmlns="http://www.w3.org/2000/svg">
<g clip-path="url(#clip0_149_698)">
<path d="M106.877 49.3486H109.066C109.249 49.3486 109.338 49.1351 109.338 48.8985C109.338 48.6656 109.249 48.4533 109.066 48.4533H98.8137C98.6357 48.4533 98.5552 48.6656 98.5552 48.8985C98.5552 49.1351 98.6357 49.3486 98.8137 49.3486H101.016V54.5521C101.016 55.7884 99.6071 57.1254 98.0202 57.1254C96.0294 57.1254 93.8029 55.0253 93.8029 48.0165V44.8222C93.8029 38.6093 94.7382 36.2726 98.4614 36.2726C98.8701 36.2726 99.2837 36.3345 99.6876 36.4813C101.834 37.2165 104.088 39.7946 104.088 42.221C104.088 42.3011 104.468 42.3678 104.585 42.3678C104.674 42.3678 104.965 42.3011 104.965 42.221C104.849 40.3296 104.703 36.3636 104.703 35.7995C104.647 35.5617 104.614 35.444 104.181 35.444C103.506 35.444 103.881 36.5056 103.125 36.5056C102.477 36.5056 101.51 35.8614 99.6876 35.5617C99.1947 35.4768 98.6069 35.444 97.9036 35.444C91.08 35.444 87.6514 41.003 87.6514 46.5619C87.6514 52.2106 91.1966 57.9164 98.0202 57.9164C101.275 57.9164 101.861 56.2955 103.999 56.2955C106.112 56.2955 105.524 57.6555 106.369 57.6555C106.812 57.6555 106.877 57.5378 106.877 57.3V49.3486Z" fill="#4348BD"/>
<path d="M123.402 36.6245H125.596C125.774 36.6245 125.863 36.4243 125.863 36.1877C125.863 35.9511 125.774 35.7425 125.596 35.7425H115.344C115.161 35.7425 115.082 35.9511 115.082 36.1877C115.082 36.4243 115.161 36.6245 115.344 36.6245H117.541V56.7371H115.344C115.161 56.7371 115.082 56.9458 115.082 57.1824C115.082 57.4189 115.161 57.6276 115.344 57.6276H125.596C125.774 57.6276 125.863 57.4189 125.863 57.1824C125.863 56.9458 125.774 56.7371 125.596 56.7371H123.402V36.6245Z" fill="#4348BD"/>
<path d="M144.23 57.6276C149.598 57.6276 154.988 53.8982 154.988 46.7415C154.988 39.5289 149.598 35.7425 144.206 35.7425H132.743C132.573 35.7425 132.484 35.9511 132.484 36.1877C132.484 36.4243 132.573 36.6245 132.743 36.6245H134.945V56.7371H132.743C132.573 56.7371 132.484 56.9458 132.484 57.1824C132.484 57.4189 132.573 57.6276 132.743 57.6276H144.23ZM148.837 45.709V47.7181C148.837 53.7223 148.071 56.7371 144.295 56.7371C143.178 56.7371 141.454 56.7371 140.806 56.708V36.6245H144.295C148.043 36.6245 148.837 39.7 148.837 45.709Z" fill="#4348BD"/>
<path d="M194.867 43.3153C194.867 43.4051 195.219 43.4573 195.336 43.4573C195.426 43.4573 195.75 43.4051 195.75 43.3153L195.722 42.6566C195.632 41.4203 195.454 36.3345 195.454 36.0688V35.979C195.454 35.9172 195.426 35.7425 195.336 35.7425H176.088C175.994 35.7425 175.97 35.9172 175.97 35.979C175.97 35.979 175.796 41.3912 175.707 42.6566L175.679 43.3153C175.679 43.4051 176.059 43.4573 176.148 43.4573C176.266 43.4573 176.552 43.4051 176.552 43.3153C176.763 41.2771 178.106 36.6245 181.422 36.6245H182.765V56.7371H180.567C180.394 56.7371 180.304 56.9458 180.304 57.1824C180.304 57.4189 180.394 57.6276 180.567 57.6276H190.828C190.997 57.6276 191.091 57.4189 191.091 57.1824C191.091 56.9458 190.997 56.7371 190.828 56.7371H188.625V36.6245H190.007C193.317 36.6245 194.698 41.2771 194.867 43.3153Z" fill="#4348BD"/>
<path d="M209.932 46.7706H213.477C215.379 46.7706 216.083 49.5185 216.083 52.0929C216.083 56.2349 218.517 57.9164 221.094 57.9164C223.7 57.9164 226.161 56.2057 226.161 53.5755C226.161 53.3389 225.964 53.22 225.73 53.22C225.523 53.22 225.287 53.3389 225.287 53.5755C225.287 54.9598 224.466 55.7083 223.649 55.7083C222.828 55.7083 222.005 54.9598 222.005 53.3959C222.005 48.4533 220.131 46.4151 216.788 46.244V46.1264C220.926 45.6144 222.944 43.2486 222.944 40.9217C222.944 38.3205 220.456 35.7425 215.652 35.7425H201.873C201.699 35.7425 201.61 35.9511 201.61 36.1877C201.61 36.4243 201.699 36.6245 201.873 36.6245H204.071V56.7371H201.873C201.699 56.7371 201.61 56.9458 201.61 57.1824C201.61 57.4189 201.699 57.6276 201.873 57.6276H212.134C212.304 57.6276 212.393 57.4189 212.393 57.1824C212.393 56.9458 212.304 56.7371 212.134 56.7371H209.932V46.7706ZM213.27 36.6245C215.614 36.6245 216.82 38.9369 216.82 41.2395C216.82 43.4864 215.675 45.8886 213.331 45.8886H209.932V36.6245H213.27Z" fill="#4348BD"/>
<path d="M242.048 35.5617C241.987 35.444 241.607 35.4149 241.489 35.4149C241.437 35.4149 240.996 35.4768 240.967 35.5617L232.581 56.8888H230.824C230.65 56.8888 230.561 57.0877 230.561 57.3243C230.561 57.5609 230.65 57.7696 230.824 57.7696H235.746C235.929 57.7696 236.008 57.5609 236.008 57.3243C236.008 57.0877 235.929 56.8888 235.746 56.8888H233.549L235.37 52.3053H242.457L244.302 56.8888H241.959C241.79 56.8888 241.696 57.0877 241.696 57.3243C241.696 57.5609 241.79 57.7696 241.959 57.7696H252.417C252.6 57.7696 252.689 57.5609 252.689 57.3243C252.689 57.0877 252.6 56.8888 252.417 56.8888H250.698L242.048 35.5617ZM238.883 43.524L242.076 51.4099H235.722L238.883 43.524Z" fill="#4348BD"/>
<path d="M267.772 57.6276C267.839 57.7465 268.214 57.7696 268.331 57.7696C268.398 57.7696 268.829 57.7174 268.863 57.6276L276.954 36.6245H279.297C279.466 36.6245 279.56 36.4243 279.56 36.1877C279.56 35.9511 279.466 35.7425 279.297 35.7425H273.788C273.605 35.7425 273.516 35.9511 273.516 36.1877C273.516 36.4243 273.605 36.6245 273.788 36.6245H275.976L270.91 49.6993L265.373 36.6245H267.721C267.89 36.6245 267.979 36.4243 267.979 36.1877C267.979 35.9511 267.89 35.7425 267.721 35.7425H256.61C256.441 35.7425 256.347 35.9511 256.347 36.1877C256.347 36.4243 256.441 36.6245 256.61 36.6245H258.93L267.772 57.6276Z" fill="#4348BD"/>
<path d="M303.702 57.6276C303.796 57.6276 303.937 57.4808 303.965 57.0065C303.993 56.7371 304.082 53.0405 304.172 51.803L304.2 51.1491C304.2 51.0593 303.796 51.0023 303.702 51.0023C303.584 51.0023 303.326 51.0593 303.326 51.1491L303.232 51.9498C303.054 53.5755 300.189 56.7371 296.879 56.7371H292.713V46.244H295.822C296.696 46.244 297.517 48.5188 297.517 49.4663V50.3483C297.517 50.4381 297.935 50.4672 298.016 50.4672C298.132 50.4672 298.401 50.4381 298.401 50.3483V41.2116C298.401 41.1595 298.132 41.0927 298.016 41.0927C297.935 41.0927 297.517 41.1595 297.517 41.2116V42.1313C297.517 43.0788 296.696 45.3535 295.822 45.3535H292.713V36.6245H296.292C299.626 36.6245 301.918 38.7901 302.115 41.8037L302.153 42.221C302.153 42.3011 302.532 42.3678 302.65 42.3678C302.739 42.3678 303.025 42.3011 303.025 42.221L303.003 41.5671C302.909 40.3296 302.768 36.7798 302.768 36.2168C302.768 36.0979 302.532 35.7425 302.444 35.7425H284.65C284.482 35.7425 284.391 35.9511 284.391 36.1877C284.391 36.4243 284.482 36.6245 284.65 36.6245H286.852V56.7371H284.65C284.482 56.7371 284.391 56.9458 284.391 57.1824C284.391 57.4189 284.482 57.6276 284.65 57.6276H303.702Z" fill="#4348BD"/>
<path d="M329.375 57.6276C329.465 57.6276 329.606 57.4808 329.633 57.0065C329.662 56.7371 329.751 53.0405 329.84 51.803L329.869 51.1491C329.869 51.0593 329.465 51.0023 329.375 51.0023C329.258 51.0023 328.995 51.0593 328.995 51.1491C328.723 53.5755 325.858 56.7371 322.548 56.7371H318.382V36.6245H320.584C320.754 36.6245 320.843 36.4243 320.843 36.1877C320.843 35.9511 320.754 35.7425 320.584 35.7425H310.324C310.149 35.7425 310.061 35.9511 310.061 36.1877C310.061 36.4243 310.149 36.6245 310.324 36.6245H312.521V56.7371H310.324C310.149 56.7371 310.061 56.9737 310.061 57.1824C310.061 57.4189 310.149 57.6276 310.324 57.6276H329.375Z" fill="#4348BD"/>
<path d="M105.632 74.3615C105.632 72.7685 104.713 71.5796 101.937 71.5796H98.6778V82.854H102.284C105.154 82.854 106.145 81.6407 106.145 79.5928C106.145 77.0584 103.782 76.8109 103.782 76.8109V76.7636C103.782 76.7636 105.632 76.6362 105.632 74.3615ZM99.6828 72.5416H101.937C103.721 72.5416 104.595 73.0245 104.595 74.3615C104.595 75.7166 103.496 76.4276 102.153 76.4276H99.6828V72.5416ZM102.284 81.8676H99.6828V77.4139H102.496C103.928 77.4139 105.046 77.9865 105.046 79.5928C105.046 81.6978 103.848 81.8676 102.284 81.8676Z" fill="#4348BD"/>
<path d="M114.893 75.2568C113.503 75.2568 112.278 75.9107 112.278 75.9107L112.484 76.5125C112.484 76.5125 113.649 76.0721 114.649 76.0721C116.035 76.0721 116.551 76.5744 116.551 78.4233V78.5228C112.818 78.5653 111.808 79.6317 111.808 81.0147C111.808 82.1903 112.69 82.934 114.025 82.934C115.142 82.934 116.1 82.2231 116.593 81.7075C116.649 82.2704 116.738 82.854 116.738 82.854H117.523V78.4233C117.523 75.9726 116.593 75.2568 114.893 75.2568ZM114.09 82.1151C113.385 82.1151 112.779 81.7876 112.779 80.9492C112.779 79.7117 114.208 79.3235 116.551 79.3138V80.7163C115.828 81.5789 114.973 82.1151 114.09 82.1151Z" fill="#4348BD"/>
<path d="M132.428 82.854V75.3466H131.457V81.9962H128.648V75.3466H127.685V81.9962H124.882V75.3466H123.909V82.854H132.428Z" fill="#4348BD"/>
<path d="M147.592 71.5796V82.854H148.596V72.5611H153.88V71.5796H147.592Z" fill="#4348BD"/>
<path d="M162.704 77.0585V82.854H163.68V75.3466H162.704L158.999 81.1336V75.3466H158.026V82.854H158.999L162.704 77.0585Z" fill="#4348BD"/>
<path d="M169.424 85.1287H170.062L170.415 82.854H175.627L175.98 85.1287H176.618V81.9962H175.787V75.3466H171.053C171.053 79.9253 170.621 81.4891 169.898 81.9962H169.424V85.1287ZM171.063 81.9962C171.885 80.7587 171.974 78.4415 171.974 76.1813H174.815V81.9962H171.063Z" fill="#4348BD"/>
<path d="M191.307 71.5796V82.854H192.326V72.5611H197.966V82.854H198.976V71.5796H191.307Z" fill="#4348BD"/>
<path d="M210.068 75.3466L207.969 82.2425L205.616 75.3466H204.569L207.101 82.854H207.762L207.48 83.7966C207.203 84.8012 206.795 85.5558 206.049 85.5558C205.668 85.5558 205.297 85.3847 205.071 85.2561L204.738 85.8021C205.071 86.1576 205.588 86.3941 206.109 86.3941C207.311 86.3941 207.978 85.5267 208.429 84.0429L211.077 75.3466H210.068Z" fill="#4348BD"/>
<path d="M216.182 75.3466V76.1813H218.563V82.854H219.535V76.1813H221.907V75.3466H216.182Z" fill="#4348BD"/>
<path d="M230.529 82.1806C229.345 82.1806 227.992 81.3047 227.992 79.1949L232.891 79.1148C232.891 77.2853 232.364 75.1525 230.256 75.1525C228.617 75.1525 227.021 76.6556 227.021 79.1767C227.021 81.631 228.406 83.025 230.354 83.025C231.787 83.025 232.764 82.3711 232.764 82.3711L232.557 81.807C232.557 81.807 231.787 82.1806 230.529 82.1806ZM230.256 75.9532C231.346 75.9532 231.886 77.0815 231.914 78.2947C229.406 78.3566 228.326 78.5228 228.021 78.5652C228.228 76.9116 229.256 75.9532 230.256 75.9532Z" fill="#4348BD"/>
<path d="M247.476 82.854V75.3466H246.505V81.9962H243.701V75.3466H242.733V81.9962H239.93V75.3466H238.958V82.854H247.476Z" fill="#4348BD"/>
<path d="M257.051 82.1806C255.873 82.1806 254.521 81.3047 254.521 79.1949L259.414 79.1148C259.414 77.2853 258.893 75.1525 256.784 75.1525C255.14 75.1525 253.543 76.6556 253.543 79.1767C253.543 81.631 254.934 83.025 256.883 83.025C258.315 83.025 259.287 82.3711 259.287 82.3711L259.081 81.807C259.081 81.807 258.315 82.1806 257.051 82.1806ZM256.784 75.9532C257.864 75.9532 258.404 77.0815 258.442 78.2947C255.935 78.3566 254.854 78.5228 254.544 78.5652C254.755 76.9116 255.775 75.9532 256.784 75.9532Z" fill="#4348BD"/>
<path d="M268.529 82.2049C267.144 82.2049 266.115 80.9868 266.115 79.167C266.115 77.3096 267.124 75.992 268.514 75.992C269.516 75.992 270.317 76.4082 270.317 76.4082L270.524 75.821C270.524 75.821 269.656 75.1525 268.27 75.1525C266.565 75.1525 265.157 76.703 265.157 79.167C265.157 81.6407 266.594 83.025 268.289 83.025C269.839 83.025 270.684 82.3711 270.684 82.3711L270.477 81.7681C270.477 81.7681 269.694 82.2049 268.529 82.2049Z" fill="#4348BD"/>
<path d="M275.953 75.3466V76.1813H278.32V82.854H279.297V76.1813H281.678V75.3466H275.953Z" fill="#4348BD"/>
<path d="M287.581 82.854H290.774C292.037 82.854 293.089 82.1624 293.089 80.7211C293.089 79.0675 291.431 78.8783 291.431 78.8783V78.8394C291.431 78.8394 292.577 78.5507 292.577 77.2283C292.577 75.9302 291.577 75.3466 290.276 75.3466H287.581V82.854ZM290.069 76.157C291.107 76.157 291.685 76.4567 291.685 77.2671C291.685 77.9769 291.163 78.5034 290.323 78.5034H288.557V76.157H290.069ZM290.394 79.3563C291.506 79.3563 292.164 79.7785 292.164 80.6787C292.164 81.4697 291.831 82.0532 290.488 82.0532H288.557V79.3563H290.394Z" fill="#4348BD"/>
<path d="M303.828 77.0585V82.854H304.806V75.3466H303.828L300.123 81.1336V75.3466H299.152V82.854H300.123L303.828 77.0585Z" fill="#4348BD"/>
<path d="M315.855 77.0584V82.854H316.832V75.3466H315.855L312.16 81.1336V75.3466H311.188V82.854H312.16L315.855 77.0584ZM315.236 72.8073C315.236 73.2902 314.94 73.9162 314.01 73.9162C313.08 73.9162 312.765 73.2999 312.765 72.8073H311.935C311.935 73.7075 312.413 74.6077 314.01 74.6077C315.399 74.6077 316.081 73.7075 316.081 72.8073H315.236Z" fill="#4348BD"/>
<path d="M9.48164 29.1074L8.62208 28.5299C9.39148 27.364 10.2234 26.2212 11.0926 25.1268L11.8992 25.7808C11.0493 26.8472 10.2378 27.9706 9.48164 29.1074Z" fill="#4348BD"/>
<path d="M24.218 15.0086C23.0531 15.7002 21.9074 16.4633 20.799 17.2786L20.1931 16.4257C21.3244 15.6007 22.4989 14.8242 23.6867 14.1133L24.218 15.0086Z" fill="#4348BD"/>
<path d="M14.6138 22.6859L13.872 21.9567C14.8446 20.9473 15.8725 19.9658 16.9099 19.0511L17.5964 19.8421C16.5625 20.7435 15.5623 21.6959 14.6138 22.6859Z" fill="#4348BD"/>
<path d="M34.8117 100.01C36.1545 100.389 37.5262 100.716 38.8883 100.972L39.0758 99.9433C37.7462 99.6922 36.4082 99.3791 35.0894 99.0043L34.8117 100.01Z" fill="#4348BD"/>
<path d="M26.9927 97.0049C28.2514 97.6261 29.5425 98.195 30.8337 98.6828L31.2003 97.711C29.9416 97.2281 28.6781 96.6737 27.4483 96.0719L26.9927 97.0049Z" fill="#4348BD"/>
<path d="M19.8361 92.6312C20.9637 93.4647 22.1322 94.2557 23.3164 94.9812L23.8514 94.0859C22.6912 93.3798 21.5504 92.6021 20.4516 91.7917L19.8361 92.6312Z" fill="#4348BD"/>
<path d="M14.3276 86.3225L13.5715 87.0383C14.5296 88.0574 15.5395 89.0438 16.5817 89.9767L17.267 89.1954C16.2487 88.2855 15.2569 87.3186 14.3276 86.3225Z" fill="#4348BD"/>
<path d="M9.25563 79.844L8.38765 80.413C9.14743 81.5886 9.96972 82.7399 10.8341 83.8439L11.6468 83.1949C10.8004 82.1151 9.99257 80.9868 9.25563 79.844Z" fill="#4348BD"/>
<path d="M5.40502 72.5562L4.45169 72.9639C5.00109 74.2668 5.60219 75.5504 6.25016 76.7782L7.16623 76.2856C6.53268 75.087 5.94 73.8301 5.40502 72.5562Z" fill="#4348BD"/>
<path d="M2.92131 64.6934L1.91147 64.9214C2.21202 66.2912 2.57868 67.6609 3.00546 69.0015L3.98644 68.6836C3.5789 67.3758 3.21704 66.0303 2.92131 64.6934Z" fill="#4348BD"/>
<path d="M1.19257 60.7601L2.21683 60.6279C2.04251 59.263 1.9259 57.8787 1.8742 56.509L0.835518 56.5466C0.887212 57.9503 1.00984 59.3722 1.19257 60.7601Z" fill="#4348BD"/>
<path d="M1.24907 48.1209C1.05672 49.5052 0.92568 50.9222 0.854751 52.3247L1.88743 52.3817C1.95836 51.0023 2.08459 49.6143 2.27333 48.2677L1.24907 48.1209Z" fill="#4348BD"/>
<path d="M47.651 7.54983C46.2649 7.54498 44.8608 7.602 43.4662 7.71968L43.5552 8.76304C44.9173 8.64415 46.2938 8.58712 47.6462 8.59197L47.651 7.54983Z" fill="#4348BD"/>
<path d="M4.1235 40.2204L3.14131 39.8989C2.70972 41.2213 2.32983 42.5899 2.01486 43.9644L3.01989 44.1973C3.33005 42.8507 3.70514 41.5198 4.1235 40.2204Z" fill="#4348BD"/>
<path d="M39.3151 8.26924C37.9482 8.51188 36.5777 8.82005 35.2252 9.18887L35.4969 10.1934C36.8121 9.83792 38.1598 9.53463 39.4942 9.2932L39.3151 8.26924Z" fill="#4348BD"/>
<path d="M7.36338 32.6476L6.45693 32.1501C5.78491 33.3913 5.1706 34.6712 4.626 35.9463L5.57934 36.3636C6.1095 35.1116 6.7154 33.8656 7.36338 32.6476Z" fill="#4348BD"/>
<path d="M31.2424 10.4785C29.9464 10.9662 28.6457 11.5158 27.3822 12.1224L27.8282 13.0663C29.064 12.4682 30.3311 11.9332 31.5995 11.4588L31.2424 10.4785Z" fill="#4348BD"/>
<path d="M64.3686 7.86161L60.8558 7.7585L55.7982 0.838318L54.1969 0.80072L56.5496 7.62504L54.1597 7.55831C53.9481 7.54982 53.7269 7.60685 53.5249 7.70148L52.009 5.23137L50.7214 5.19377L51.9104 8.45487L50.5339 11.6347L51.8166 11.6772L53.4828 9.29806C53.6752 9.40725 53.8916 9.47397 54.1032 9.48246L56.4979 9.55405L53.7509 16.2316L55.3426 16.2886L60.8041 9.6778L64.3121 9.78577C64.9649 9.81003 65.5985 9.59652 66.1058 9.18403C66.1863 9.10396 66.2464 8.99962 66.2512 8.88558C66.2512 8.77153 66.214 8.65385 66.1298 8.57742C65.6453 8.12732 65.0214 7.88102 64.3686 7.86161Z" fill="#4348BD"/>
<path d="M25.0295 30.4674C12.867 42.0354 12.2948 61.4335 23.7576 73.7075C35.2204 85.9816 54.441 86.5555 66.6083 74.9875C78.7708 63.4183 79.3394 44.0214 67.8766 31.7474C56.4138 19.4733 37.1932 18.8994 25.0295 30.4674ZM67.1914 39.2535C67.9704 39.2826 68.5005 39.4865 68.961 39.8177C74.6617 50.2295 72.915 63.6221 63.9551 72.1486C60.6358 75.3041 56.7143 77.4224 52.5908 78.5179C52.5067 78.3711 52.4177 78.2243 52.3227 78.0678C51.7457 77.1191 52.6052 75.5892 52.6329 74.5701C52.6617 73.5753 53.3794 72.3051 53.0705 71.3381C52.8637 70.7024 52.051 70.4185 51.8395 69.8398C51.6844 69.4043 51.8767 68.589 51.8911 68.1243C51.9236 66.9548 50.9102 64.9688 50.1444 64.1438C49.2523 64.9918 48.3603 65.8411 47.4719 66.6891C46.6268 67.4898 45.8478 66.3288 45.2599 65.7028C44.9461 65.3716 44.5843 64.9396 44.1334 64.7831C43.6213 64.6133 43.1236 65.2818 42.6499 65.4237C41.8228 65.6651 40.837 65.5463 40.1422 65.0209C39.6866 64.6788 39.4185 64.3622 38.9208 64.8741C38.4375 65.3716 38.3473 66.2293 37.8785 66.6745C37.2918 67.2338 36.6991 67.798 36.1077 68.3573C34.8069 69.5984 33.5013 70.8407 32.2005 72.077C32.3977 72.2905 32.9243 73.1009 33.2104 73.0111C33.9197 72.7976 34.6241 72.5841 35.3334 72.3657C36.3902 72.0491 37.4505 72.7552 38.4603 73.1288C39.4557 73.4989 40.4896 73.807 41.4562 74.2341C42.6584 74.7643 43.8473 75.4897 45.195 75.5504C45.7576 75.5747 46.2601 74.9875 46.7674 75.2811C47.407 75.6499 47.8338 76.4373 48.1956 77.0584C48.5899 77.7451 48.947 78.4609 49.3269 79.1573C42.6535 80.0478 35.7229 78.376 30.1015 74.1771C30.3504 73.9017 30.5848 73.6129 30.7399 73.4613C31.2616 72.9687 31.2424 72.9165 31.2664 72.1765C31.2845 71.5323 31.4071 71.229 30.9755 70.7691C30.4814 70.239 29.9837 69.7027 29.486 69.1726C30.4297 68.8875 31.3698 68.6035 32.3087 68.3184C31.6043 67.5092 32.0647 66.8832 32.6045 66.1674C33.2428 65.3194 32.9808 64.0249 33.6804 63.3576C34.2623 62.808 34.6049 62.6892 35.3142 62.3482C35.6905 62.1723 36.1497 61.9406 36.3613 61.5657C36.6426 61.0586 35.8732 60.4289 35.7085 59.9691C35.4693 59.3103 35.1543 58.3616 35.6472 57.8035C36.1882 57.2006 36.6991 56.2154 35.4645 56.1827C34.1024 56.139 32.7403 55.7362 31.4588 55.3201C30.9046 55.1345 30.3083 54.5946 29.7264 54.6613C28.4533 54.8081 28.0542 56.6328 27.9652 57.6701C27.9184 58.2536 29.0268 58.4429 28.7635 59.0349C28.3451 60.0019 27.6551 61.1156 26.6032 61.4517C26.0297 61.6373 25.3541 61.4044 24.8275 61.7465C24.4669 61.9831 24.4476 61.8362 24.1182 61.4856C23.5688 60.8972 23.0158 60.3052 22.4664 59.718C22.2404 59.4717 22.3955 59.5045 22.5554 59.2291C23.189 58.1542 21.6117 57.5002 22.4616 56.6655C23.4426 55.7035 20.8555 54.9222 20.2592 54.8312C19.9202 54.779 19.6906 54.8312 19.4886 54.9501C18.8503 47.1309 21.6021 39.0982 27.6875 33.3063C33.2248 28.041 40.4427 25.6667 47.496 26.1168C47.5188 28.2351 47.6126 30.5815 47.3926 31.8711C47.2423 32.7568 46.7915 33.6339 46.4861 34.4771C46.1808 35.3203 45.2515 35.9087 44.6167 36.5104C44.4532 36.6669 42.4804 38.4916 42.5321 38.5389C43.0719 39.1213 44.4664 40.0312 44.1755 40.8416C43.8233 41.8085 43.3159 42.7755 43.2835 43.8079C43.2739 44.1027 43.0623 45.117 43.4097 45.1303C43.4097 45.1303 43.4097 45.1303 43.4145 45.1255C43.2691 45.1679 43.138 45.2298 43.0346 45.3293C42.3061 46.0693 41.4045 46.9926 41.1376 48.0311C40.9729 48.6947 41.4562 48.9883 41.8132 49.4809C42.2123 50.0353 42.5514 50.7038 42.5369 51.405C42.5273 52.2434 42.6632 52.2531 43.3256 52.964C43.9928 52.173 44.6636 51.3771 45.3308 50.5849C45.4102 50.4903 45.956 49.965 45.861 49.8655C45.6879 49.6799 44.993 49.1448 44.9978 48.8937C45.0158 48.3392 45.0303 47.78 45.0495 47.2255C45.0579 46.8846 45.8381 47.0836 46.1098 47.0921C46.6172 47.1066 46.9225 46.9222 46.9045 47.4573C46.89 47.9741 46.8756 48.486 46.8612 48.998C46.9742 48.884 47.8482 48.116 47.8013 48.059C47.1581 47.3056 46.9417 46.1967 46.9694 45.2346C47.0031 44.1973 47.7208 43.4998 48.7258 43.4197C49.1345 43.3869 49.5577 44.1258 49.7921 44.3769C49.952 44.548 51.5533 46.3581 51.6423 46.278C52.0655 45.874 52.5247 45.6229 52.586 45.0405C52.8168 43.0412 54.4831 41.8838 54.5864 39.8177C55.5121 40.1598 56.4318 40.5007 57.3527 40.8416C56.8309 41.8231 56.3104 42.8034 55.7886 43.7848C55.7466 43.8601 55.4268 44.5613 55.357 44.5383C54.8593 44.3575 54.3424 44.1779 53.8218 44.0979C53.1258 43.9887 53.3746 44.4194 53.7882 44.7372C54.4698 45.2589 55.3991 45.4676 56.2394 45.5149C57.1231 45.5622 58.217 46.2295 59.0526 46.5376C57.8828 45.4057 61.3632 45.6665 61.8753 45.6799C61.8981 44.8889 61.9222 44.0882 61.945 43.2971C61.9546 42.898 61.9691 42.5049 61.9787 42.1118C61.9871 41.794 61.7623 41.9177 61.4714 41.8607C59.9025 41.5477 61.9029 40.1731 62.4295 39.6709C63.4297 38.7233 64.4348 38.2635 65.8197 38.2732C64.8471 39.1067 66.773 39.2402 67.1914 39.2535Z" fill="#4348BD"/>
<path d="M39.8368 44.7093C39.8272 45.1255 39.8128 45.5428 39.8032 45.9601C39.6577 46.2489 39.3103 46.6092 39.5363 46.8749C39.8128 47.2061 40.0905 47.5288 40.367 47.86C40.5882 47.2534 40.8082 46.642 41.0294 46.0354C41.1003 45.8413 40.0148 44.8937 39.8368 44.7093Z" fill="#4348BD"/>
<path d="M40.837 41.9311C41.0763 41.7042 41.6161 41.4433 41.3492 41.1546C41.3444 41.1497 41.3396 41.1449 41.3348 41.14C41.4658 41.1874 41.6016 41.1643 41.7435 41.0551C41.9683 41.453 42.1895 41.8607 42.3963 42.278C42.4143 41.7042 42.4287 41.1352 42.448 40.5626C42.4564 40.178 41.8841 39.7897 41.6401 39.524C41.5932 39.4816 41.5499 39.4343 41.5079 39.3869C40.9212 38.7561 40.3297 38.1264 39.7382 37.4907C39.7563 37.5477 39.7803 37.6375 39.808 37.7418C39.6673 37.6193 39.5363 37.4907 39.3956 37.3682C39.5687 37.629 39.7431 37.8886 39.9162 38.1495C40.0989 38.8422 40.4043 39.8795 40.7805 40.5431C40.7 40.4631 40.6255 40.3818 40.5497 40.3017C39.9631 39.6708 39.3716 39.0363 38.7801 38.4055C38.9532 38.9793 39.8176 42.9028 40.837 41.9311Z" fill="#4348BD"/>
<path d="M63.8661 49.2249C64.3963 48.5237 64.5934 47.5713 64.6415 46.7038C63.7062 47.1394 62.7769 47.5761 61.8416 48.0165C60.7945 48.5043 60.7104 48.4193 59.5971 48.0068C58.7244 47.6805 58.1137 47.4475 57.2024 47.4245C56.5352 47.4002 54.6995 47.6938 54.2246 47.1879C53.5069 46.4151 53.6103 46.2295 52.8962 46.9125C51.9993 47.7654 51.0977 48.6183 50.2009 49.4712C48.7306 50.87 47.2603 52.2676 45.7912 53.6653C45.7672 54.813 45.8057 55.9922 46.0497 57.1108C46.4813 59.1065 48.0213 58.8457 49.708 58.9682C51.5112 59.1065 52.7218 61.0962 54.6574 59.8126C55.3474 59.3528 55.9389 58.6321 56.54 58.0632C56.6109 57.9976 57.7518 56.5563 57.4092 56.4472C57.7794 56.566 58.3577 57.3389 58.6955 57.5997C59.4469 58.1772 60.2319 58.7171 61.0157 59.2533C61.9498 59.8927 62.9741 60.4289 63.7483 61.2576C64.5466 62.1104 65.9086 61.7938 67.0363 61.8265C67.4583 61.8411 67.8105 61.9636 68.1255 61.6652C68.6652 61.1484 69.205 60.6327 69.7508 60.1208C70.0177 59.8648 66.3787 56.9834 66.8391 55.7508C66.9653 55.3953 67.5761 55.0738 67.4534 54.6564C67.3789 54.3713 67.0495 54.2391 66.975 53.9601C66.7778 53.2673 67.7636 53.1824 67.106 52.3671C66.571 51.7084 65.2655 50.5327 64.3734 50.4527C63.2891 50.358 63.2746 50.0123 63.8661 49.2249Z" fill="#4348BD"/>
<path d="M30.2374 42.8507C29.2937 42.8325 28.3403 42.8701 27.4062 43.012C26.1475 43.2013 25.5272 43.6999 24.6172 44.5662C24.1796 44.9786 23.7059 45.3717 23.3068 45.8231C23.1325 46.0172 23.4005 46.1591 23.4799 46.3484C23.9403 47.5046 23.5268 49.8133 23.4895 51.1163C24.4104 50.244 26.7246 51.6804 27.7344 52.0541C28.3355 52.2773 28.6745 52.7893 29.1157 53.2625C29.7589 53.9552 29.8154 54.1299 30.7351 54.159C31.6463 54.187 31.787 54.415 31.811 53.5051C31.8387 52.5855 31.8675 51.6707 31.8904 50.7608C31.9096 50.1542 31.2989 49.7842 30.9094 49.3632C30.3275 48.742 29.8767 48.7044 30.4958 48.1063C30.9755 47.6514 31.4684 47.268 31.5381 46.5716C31.5946 46.0354 31.5249 45.5003 31.8483 45.0405C32.2102 44.5285 33.0036 43.4718 32.1212 42.9077C31.7642 42.6808 30.6798 42.8652 30.2374 42.8507Z" fill="#4348BD"/>
</g>
<defs>
<clipPath id="clip0_149_698">
<rect width="330" height="101" fill="white"/>
</clipPath>
</defs>
</svg>
