<svg width="32" height="32" viewBox="0 0 32 32" fill="none" xmlns="http://www.w3.org/2000/svg">
<g clip-path="url(#clip0_9_221)">
<path fill-rule="evenodd" clip-rule="evenodd" d="M16 0C7.16344 0 0 7.16344 0 16C0 24.8366 7.16344 32 16 32C24.8366 32 32 24.8366 32 16C32 7.16344 24.8366 0 16 0ZM23.5874 10.763C23.7843 11.2694 23.9218 11.8539 23.9593 12.7041C23.9968 13.5574 24 13.8293 24 16.0016C24 18.1739 23.9906 18.4458 23.9531 19.2991C23.9156 20.1493 23.778 20.7307 23.5811 21.2402C23.1653 22.3153 22.315 23.1655 21.2395 23.5812C20.7331 23.7782 20.1485 23.9156 19.2982 23.9531C18.4447 23.9907 18.1728 24 16.0001 24C13.8273 24 13.5553 23.9907 12.7019 23.9531C11.8515 23.9156 11.2701 23.7782 10.7605 23.5812C10.229 23.3812 9.74445 23.0655 9.34427 22.6592C8.93786 22.2591 8.62219 21.7778 8.41899 21.2402C8.22201 20.7337 8.08438 20.1493 8.04689 19.2991C8.0094 18.4458 8 18.1739 8 16.0016C8 13.8293 8.0094 13.5574 8.05007 12.7009C8.08756 11.8507 8.22506 11.2694 8.42204 10.7599C8.62219 10.2286 8.93786 9.74412 9.34427 9.34402C9.74445 8.93451 10.2258 8.62195 10.7636 8.41878C11.2701 8.22197 11.8546 8.08437 12.705 8.04688C13.5584 8.0094 13.8304 8 16.0031 8C18.1758 8 18.4478 8.0094 19.3044 8.05006C20.1548 8.08754 20.7363 8.22502 21.2458 8.42196C21.7772 8.62195 22.2618 8.93769 22.662 9.34402C23.0715 9.74412 23.3842 10.2254 23.5874 10.763ZM22.2431 20.7213C22.3525 20.44 22.4838 20.018 22.5182 19.2366C22.5557 18.3927 22.5651 18.1426 22.5651 16.0078C22.5651 13.873 22.5557 13.6199 22.5182 12.776C22.4838 11.9976 22.3525 11.5726 22.2431 11.2913C22.1149 10.9443 21.9117 10.6317 21.6459 10.3723C21.3896 10.1066 21.0738 9.90345 20.7269 9.77538C20.4455 9.66598 20.0235 9.53473 19.2419 9.5003C18.4009 9.46282 18.1477 9.45341 16.0093 9.45341C13.8742 9.45341 13.621 9.46282 12.7769 9.5003C11.9985 9.53473 11.5733 9.66598 11.2919 9.77538C10.9449 9.90345 10.6322 10.1066 10.3729 10.3723C10.104 10.6287 9.90076 10.9443 9.77254 11.2913C9.66312 11.5726 9.53185 11.9946 9.49753 12.776C9.45992 13.6167 9.45064 13.873 9.45064 16.0078C9.45064 18.1426 9.45992 18.3959 9.49753 19.2398C9.53185 20.018 9.66312 20.4431 9.77254 20.7244C9.90076 21.0713 10.104 21.3839 10.3697 21.6433C10.626 21.909 10.9418 22.1122 11.2888 22.2404C11.5701 22.3498 11.9922 22.481 12.7737 22.5153C13.6147 22.5529 13.8711 22.5622 16.0063 22.5622C18.1415 22.5622 18.3947 22.5529 19.2387 22.5153C20.0173 22.481 20.4423 22.3498 20.7237 22.2404C21.4209 21.9715 21.9742 21.4183 22.2431 20.7213ZM11.8921 16.0016C11.8921 13.7324 13.7336 11.8914 16.0031 11.8914C18.2728 11.8914 20.1141 13.7324 20.1141 16.0016C20.1141 18.2709 18.2728 20.1118 16.0031 20.1118C13.7336 20.1118 11.8921 18.2709 11.8921 16.0016ZM13.3364 16.0016C13.3364 17.4738 14.5307 18.6678 16.0031 18.6678C17.4756 18.6678 18.6698 17.4738 18.6698 16.0016C18.6698 14.5294 17.4756 13.3355 16.0031 13.3355C14.5307 13.3355 13.3364 14.5294 13.3364 16.0016ZM21.2365 11.7289C21.2365 12.2588 20.8067 12.6885 20.2766 12.6885C19.7466 12.6885 19.3169 12.2588 19.3169 11.7289C19.3169 11.1989 19.7466 10.7694 20.2766 10.7694C20.8067 10.7694 21.2365 11.1989 21.2365 11.7289Z" fill="white"/>
</g>
<defs>
<clipPath id="clip0_9_221">
<rect width="32" height="32" rx="9" fill="white"/>
</clipPath>
</defs>
</svg>
