<svg width="14" height="16" viewBox="0 0 14 16" fill="none" xmlns="http://www.w3.org/2000/svg">
<path d="M7 0.5C3.48597 0.5 0.625 3.36097 0.625 6.875C0.625 8.45255 1.20374 9.89931 2.1543 11.0117L2.15723 11.0146L2.15942 11.0176C2.15942 11.0176 4.8714 14.1121 5.83691 15.0334C6.48346 15.6499 7.5158 15.6499 8.16235 15.0334C9.2629 13.9837 11.8413 11.0161 11.8413 11.0161L11.8428 11.0139L11.845 11.0117C12.7964 9.8993 13.375 8.45255 13.375 6.875C13.375 3.36097 10.514 0.5 7 0.5ZM7 1.625C9.90597 1.625 12.25 3.96903 12.25 6.875C12.25 8.1782 11.7751 9.36222 10.9895 10.2808C10.9844 10.2866 8.34626 13.3038 7.38599 14.2197C7.16329 14.4321 6.83598 14.4321 6.61328 14.2197C5.81072 13.4539 3.01791 10.29 3.00977 10.2808L3.00903 10.28C2.2245 9.36156 1.75 8.17784 1.75 6.875C1.75 3.96903 4.09403 1.625 7 1.625ZM7 4.625C6.29688 4.625 5.69831 4.90893 5.31396 5.34131C4.92962 5.77369 4.75 6.32812 4.75 6.875C4.75 7.42188 4.92962 7.97631 5.31396 8.40869C5.69831 8.84107 6.29688 9.125 7 9.125C7.70312 9.125 8.30169 8.84107 8.68604 8.40869C9.07038 7.97631 9.25 7.42188 9.25 6.875C9.25 6.32812 9.07038 5.77369 8.68604 5.34131C8.30169 4.90893 7.70312 4.625 7 4.625ZM7 5.75C7.42187 5.75 7.66706 5.88795 7.84521 6.08838C8.02337 6.28881 8.125 6.57812 8.125 6.875C8.125 7.17188 8.02337 7.46119 7.84521 7.66162C7.66706 7.86205 7.42187 8 7 8C6.57813 8 6.33294 7.86205 6.15479 7.66162C5.97663 7.46119 5.875 7.17188 5.875 6.875C5.875 6.57812 5.97663 6.28881 6.15479 6.08838C6.33294 5.88795 6.57813 5.75 7 5.75Z" fill="#7E7E7E"/>
</svg>
