<svg width="16" height="17" viewBox="0 0 16 17" fill="none" xmlns="http://www.w3.org/2000/svg">
<path fill-rule="evenodd" clip-rule="evenodd" d="M10.594 13.0082C9.54341 13.638 8.31399 14 7 14C3.13401 14 0 10.866 0 7C0 3.13401 3.13401 0 7 0C10.866 0 14 3.13401 14 7C14 8.82763 13.2996 10.4917 12.1525 11.7383L15.2071 14.7929C15.5976 15.1834 15.5976 15.8166 15.2071 16.2071C14.8166 16.5976 14.1834 16.5976 13.7929 16.2071L10.594 13.0082ZM12 7C12 9.76142 9.76142 12 7 12C4.23858 12 2 9.76142 2 7C2 4.23858 4.23858 2 7 2C9.76142 2 12 4.23858 12 7Z" fill="white"/>
</svg>
