<svg width="92" height="92" viewBox="0 0 92 92" fill="none" xmlns="http://www.w3.org/2000/svg">
<rect width="92" height="92" rx="46" fill="#4348BD"/>
<path d="M46 28C44.125 28 42.5288 28.7571 41.5039 29.9102C40.479 31.0632 40 32.5417 40 34C40 35.4583 40.479 36.9368 41.5039 38.0898C42.5288 39.2429 44.125 40 46 40C47.875 40 49.4712 39.2429 50.4961 38.0898C51.521 36.9368 52 35.4583 52 34C52 32.5417 51.521 31.0632 50.4961 29.9102C49.4712 28.7571 47.875 28 46 28ZM33 30C31.4583 30 30.1121 30.6321 29.2539 31.5977C28.3957 32.5632 28 33.7917 28 35C28 36.2083 28.3957 37.4368 29.2539 38.4023C30.1121 39.3679 31.4583 40 33 40C34.5417 40 35.8879 39.3679 36.7461 38.4023C37.6043 37.4368 38 36.2083 38 35C38 33.7917 37.6043 32.5632 36.7461 31.5977C35.8879 30.6321 34.5417 30 33 30ZM59 30C57.4583 30 56.1121 30.6321 55.2539 31.5977C54.3957 32.5632 54 33.7917 54 35C54 36.2083 54.3957 37.4368 55.2539 38.4023C56.1121 39.3679 57.4583 40 59 40C60.5417 40 61.8879 39.3679 62.7461 38.4023C63.6043 37.4368 64 36.2083 64 35C64 33.7917 63.6043 32.5632 62.7461 31.5977C61.8879 30.6321 60.5417 30 59 30ZM46 31C47.125 31 47.7788 31.3679 48.2539 31.9023C48.729 32.4368 49 33.2083 49 34C49 34.7917 48.729 35.5632 48.2539 36.0977C47.7788 36.6321 47.125 37 46 37C44.875 37 44.2212 36.6321 43.7461 36.0977C43.271 35.5632 43 34.7917 43 34C43 33.2083 43.271 32.4368 43.7461 31.9023C44.2212 31.3679 44.875 31 46 31ZM33 33C33.7917 33 34.1955 33.2429 34.5039 33.5898C34.8123 33.9368 35 34.4583 35 35C35 35.5417 34.8123 36.0632 34.5039 36.4102C34.1955 36.7571 33.7917 37 33 37C32.2083 37 31.8045 36.7571 31.4961 36.4102C31.1877 36.0632 31 35.5417 31 35C31 34.4583 31.1877 33.9368 31.4961 33.5898C31.8045 33.2429 32.2083 33 33 33ZM59 33C59.7917 33 60.1955 33.2429 60.5039 33.5898C60.8123 33.9368 61 34.4583 61 35C61 35.5417 60.8123 36.0632 60.5039 36.4102C60.1955 36.7571 59.7917 37 59 37C58.2083 37 57.8045 36.7571 57.4961 36.4102C57.1877 36.0632 57 35.5417 57 35C57 34.4583 57.1877 33.9368 57.4961 33.5898C57.8045 33.2429 58.2083 33 59 33ZM29.5 42C27.57 42 26 43.57 26 45.5V52C26 56.41 29.59 60 34 60C34.71 60 35.4005 59.9105 36.0605 59.7305C35.6405 58.8305 35.3302 57.8694 35.1602 56.8594C34.7902 56.9494 34.4 57 34 57C31.24 57 29 54.76 29 52V45.5C29 45.22 29.22 45 29.5 45H35.0293C35.1293 43.86 35.5698 42.83 36.2598 42H29.5ZM40.5 42C38.585 42 37 43.585 37 45.5V55C37 59.9527 41.0473 64 46 64C50.9527 64 55 59.9527 55 55V45.5C55 43.585 53.415 42 51.5 42H40.5ZM55.7402 42C56.4302 42.83 56.8707 43.86 56.9707 45H62.5C62.78 45 63 45.22 63 45.5V52C63 54.76 60.76 57 58 57C57.6 57 57.2098 56.9494 56.8398 56.8594C56.6698 57.8694 56.3595 58.8305 55.9395 59.7305C56.5995 59.9105 57.29 60 58 60C62.41 60 66 56.41 66 52V45.5C66 43.57 64.43 42 62.5 42H55.7402ZM40.5 45H44.0605L44.9785 46.8359C44.9825 46.8429 44.9882 46.8485 44.9922 46.8555C44.9912 46.8615 44.9873 46.8651 44.9863 46.8711L44.0117 52.4961C43.9757 52.7031 44.0282 52.916 44.1562 53.082L45.4062 54.707C45.5473 54.892 45.767 55 46 55C46.233 55 46.4527 54.892 46.5938 54.707L47.8438 53.082C47.9718 52.916 48.0243 52.7031 47.9883 52.4961L47.0137 46.8711C47.0127 46.8651 47.0098 46.8615 47.0078 46.8555C47.0118 46.8485 47.0175 46.8439 47.0215 46.8359L47.9375 45H51.5C51.795 45 52 45.205 52 45.5V55C52 58.3313 49.3313 61 46 61C42.6687 61 40 58.3313 40 55V45.5C40 45.205 40.205 45 40.5 45Z" fill="white"/>
</svg>
