<svg width="30" height="30" viewBox="0 0 30 30" fill="none" xmlns="http://www.w3.org/2000/svg">
<path d="M17.2046 2.50238C16.9288 2.49216 16.6489 2.52604 16.3745 2.60736L9.36157 4.68622C8.26119 5.01175 7.5 6.03146 7.5 7.1789V11.5576L6.29639 11.914C6.17451 11.9455 6.06022 12.0012 5.96034 12.0779C5.86046 12.1545 5.77703 12.2505 5.71504 12.36C5.65304 12.4696 5.61374 12.5905 5.59949 12.7156C5.58523 12.8407 5.59631 12.9673 5.63206 13.088C5.66781 13.2087 5.72751 13.321 5.80758 13.4181C5.88766 13.5153 5.98647 13.5953 6.09814 13.6534C6.2098 13.7115 6.33203 13.7466 6.45753 13.7565C6.58303 13.7663 6.70923 13.7508 6.82861 13.7109L8.54492 13.2018C8.64973 13.1893 8.75166 13.1592 8.84644 13.1127L21.4185 9.38837C21.5128 9.3751 21.6046 9.34752 21.6907 9.30658L23.7036 8.71088C23.924 8.64879 24.114 8.50824 24.2378 8.31572C24.3617 8.1232 24.4108 7.89202 24.376 7.66577C24.3412 7.43951 24.2248 7.23382 24.0487 7.08747C23.8727 6.94112 23.6492 6.86422 23.4204 6.87128C23.3359 6.87422 23.2521 6.88859 23.1714 6.914L21.6895 7.35346L19.2896 3.67792C18.8197 2.95896 18.032 2.53306 17.2046 2.50238ZM17.1399 4.37494C17.3707 4.38248 17.5867 4.501 17.7197 4.70453L19.8132 7.90888L9.375 11.0021V7.1789C9.375 6.85383 9.58293 6.57628 9.8938 6.48432L16.9067 4.40546C16.9845 4.38241 17.0629 4.37243 17.1399 4.37494ZM22.5378 10.3588L20.7043 10.9033L22.2339 13.7939H22.2314L21.6248 14.2504C21.3891 14.4273 21.25 14.7049 21.25 14.9999C21.25 15.2556 21.1881 17.4999 19.0625 17.4999H17.8125C17.295 17.4999 16.875 17.9199 16.875 18.4374V19.3749V20.9374C16.875 21.3531 17.1482 21.7196 17.5476 21.8371C17.5901 21.8496 21.2905 22.9668 22.7148 25.6249H5.93994C6.04557 25.4199 6.18639 25.1883 6.37451 24.9377C8.16951 22.5439 10.5421 21.8464 10.5615 21.8408C10.9684 21.7289 11.25 21.3593 11.25 20.9374V16.5624C11.25 16.3931 11.2032 16.2253 11.1157 16.0803C11.1088 16.0684 10.5492 15.1197 10.1904 14.0197L8.38989 14.5519C8.70802 15.5419 9.15375 16.4096 9.375 16.8102V20.2819C8.36812 20.7013 6.44799 21.7153 4.87549 23.8122C3.78174 25.2703 3.75 26.4343 3.75 26.5624C3.75 27.0799 4.16938 27.4999 4.6875 27.4999H24.0625C24.3481 27.4999 24.618 27.3697 24.7961 27.1459C24.9743 26.9228 25.0412 26.63 24.9768 26.3513C24.1312 22.6888 20.3213 20.8747 18.75 20.2722V19.3749H19.0625C21.9556 19.3749 22.9319 17.0551 23.0981 15.4882L24.0002 14.812C24.369 14.5351 24.4814 14.0323 24.2651 13.6242V13.623L22.5378 10.3588Z" fill="#696EDA"/>
</svg>
