<svg width="32" height="32" viewBox="0 0 32 32" fill="none" xmlns="http://www.w3.org/2000/svg">
<g clip-path="url(#clip0_9_223)">
<path fill-rule="evenodd" clip-rule="evenodd" d="M16 0C24.8366 0 32 7.16344 32 16C32 24.8366 24.8366 32 16 32C7.16344 32 0 24.8366 0 16C0 7.16344 7.16344 0 16 0ZM18.0585 16.8466C18.2215 16.906 19.0954 17.336 19.2731 17.4249C19.3078 17.4423 19.3403 17.458 19.3704 17.4725C19.4943 17.5324 19.5781 17.5729 19.6138 17.6326C19.6582 17.7067 19.6582 18.0626 19.5101 18.4778C19.362 18.893 18.6519 19.272 18.3103 19.323C18.0041 19.3688 17.6166 19.3879 17.1908 19.2526C16.9326 19.1707 16.6015 19.0613 16.1775 18.8781C14.5113 18.1587 13.3853 16.5439 13.1722 16.2384C13.1572 16.2169 13.1468 16.202 13.141 16.1942L13.1395 16.1922C13.0453 16.0666 12.4152 15.2257 12.4152 14.3554C12.4152 13.5366 12.8173 13.1075 13.0025 12.9099C13.0152 12.8964 13.0268 12.8839 13.0373 12.8725C13.2002 12.6946 13.3928 12.6501 13.5113 12.6501C13.6298 12.6501 13.7484 12.6512 13.8519 12.6564C13.8647 12.657 13.878 12.6569 13.8918 12.6569C13.9954 12.6563 14.1245 12.6555 14.2519 12.9615C14.3008 13.079 14.3723 13.253 14.4477 13.4366C14.6008 13.8094 14.7702 14.2217 14.7999 14.2813C14.8444 14.3703 14.874 14.4741 14.8147 14.5927C14.8059 14.6105 14.7976 14.6273 14.7898 14.6434C14.7453 14.7342 14.7125 14.8011 14.637 14.8892C14.6074 14.9238 14.5768 14.961 14.5463 14.9983C14.485 15.0729 14.4237 15.1475 14.3704 15.2007C14.2814 15.2893 14.1888 15.3855 14.2924 15.5634C14.3961 15.7414 14.7529 16.3234 15.2813 16.7948C15.8493 17.3015 16.343 17.5156 16.5932 17.6241C16.6421 17.6453 16.6817 17.6625 16.7107 17.677C16.8884 17.7661 16.9921 17.7512 17.0958 17.6326C17.1995 17.5139 17.5401 17.1135 17.6586 16.9356C17.7771 16.7577 17.8956 16.7873 18.0585 16.8466ZM16.0275 21.8533H16.0299C19.2888 21.8533 21.9413 19.2008 21.9426 15.9405C21.9432 14.3606 21.3288 12.875 20.2125 11.7575C19.0961 10.6398 17.6115 10.024 16.0322 10.0234C12.7708 10.0234 10.1183 12.6757 10.117 15.9357C10.1165 17.053 10.4292 18.141 11.021 19.0824L11.1616 19.3061L10.5643 21.488L12.8021 20.901L13.0181 21.0291C13.9259 21.5678 14.9665 21.8529 16.0275 21.8533ZM16.0298 8.82194C17.9329 8.82273 19.719 9.56356 21.0621 10.9082C22.4052 12.2528 23.1444 14.0401 23.1437 15.941C23.1421 19.8633 19.9505 23.0547 16.0299 23.0547H16.027C14.8364 23.0543 13.6665 22.7556 12.6274 22.1888L8.85628 23.178L9.8655 19.4917C9.24296 18.4129 8.9154 17.1891 8.91591 15.9353C8.91748 12.013 12.1088 8.82194 16.0298 8.82194Z" fill="white"/>
</g>
<defs>
<clipPath id="clip0_9_223">
<rect width="32" height="32" fill="white"/>
</clipPath>
</defs>
</svg>
